<svg width="32" height="32" viewBox="0 0 32 32" fill="none" xmlns="http://www.w3.org/2000/svg">
<path d="M28 32H16C15.6464 32 15.3073 31.8595 15.0572 31.6095C14.8072 31.3594 14.6667 31.0203 14.6667 30.6667V28C14.6667 27.6464 14.8072 27.3072 15.0572 27.0572C15.3073 26.8071 15.6464 26.6667 16 26.6667H28C28.3536 26.6667 28.6928 26.8071 28.9428 27.0572C29.1929 27.3072 29.3334 27.6464 29.3334 28V30.6667C29.3334 31.0203 29.1929 31.3594 28.9428 31.6095C28.6928 31.8595 28.3536 32 28 32Z" fill="#C4B5FD"/>
<path d="M28 0H4.00002C3.6464 0 3.30726 0.140475 3.05721 0.390523C2.80716 0.640572 2.66669 0.979711 2.66669 1.33333V4C2.66669 4.35362 2.80716 4.69276 3.05721 4.94281C3.30726 5.19286 3.6464 5.33333 4.00002 5.33333H28C28.3536 5.33333 28.6928 5.19286 28.9428 4.94281C29.1929 4.69276 29.3334 4.35362 29.3334 4V1.33333C29.3334 0.979711 29.1929 0.640572 28.9428 0.390523C28.6928 0.140475 28.3536 0 28 0Z" fill="#1DB5BE"/>
<path d="M28 8H4.00002C3.6464 8 3.30726 8.14047 3.05721 8.39052C2.80716 8.64057 2.66669 8.97971 2.66669 9.33333V22.6667C2.66669 23.0203 2.80716 23.3594 3.05721 23.6095C3.30726 23.8595 3.6464 24 4.00002 24H28C28.3536 24 28.6928 23.8595 28.9428 23.6095C29.1929 23.3594 29.3334 23.0203 29.3334 22.6667V9.33333C29.3334 8.97971 29.1929 8.64057 28.9428 8.39052C28.6928 8.14047 28.3536 8 28 8Z" fill="#7C3AED"/>
</svg>
