<svg width="32" height="32" viewBox="0 0 32 32" fill="none" xmlns="http://www.w3.org/2000/svg">
<path d="M6.66671 1.33333H2.66671C2.31309 1.33333 1.97395 1.47381 1.7239 1.72386C1.47385 1.9739 1.33337 2.31304 1.33337 2.66667V29.3333C1.33337 29.687 1.47385 30.0261 1.7239 30.2761C1.97395 30.5262 2.31309 30.6667 2.66671 30.6667H6.66671V1.33333Z" fill="#C4B5FD"/>
<path d="M9.33337 30.6667H22.6667V1.33333H9.33337V30.6667ZM16 25.3333C15.6464 25.3333 15.3073 25.1929 15.0572 24.9428C14.8072 24.6928 14.6667 24.3536 14.6667 24C14.6667 23.6464 14.8072 23.3072 15.0572 23.0572C15.3073 22.8071 15.6464 22.6667 16 22.6667C16.3537 22.6667 16.6928 22.8071 16.9429 23.0572C17.1929 23.3072 17.3334 23.6464 17.3334 24C17.3334 24.3536 17.1929 24.6928 16.9429 24.9428C16.6928 25.1929 16.3537 25.3333 16 25.3333ZM16 6.66667C16.3537 6.66667 16.6928 6.80714 16.9429 7.05719C17.1929 7.30724 17.3334 7.64638 17.3334 8C17.3334 8.35362 17.1929 8.69276 16.9429 8.94281C16.6928 9.19286 16.3537 9.33333 16 9.33333C15.6464 9.33333 15.3073 9.19286 15.0572 8.94281C14.8072 8.69276 14.6667 8.35362 14.6667 8C14.6667 7.64638 14.8072 7.30724 15.0572 7.05719C15.3073 6.80714 15.6464 6.66667 16 6.66667ZM16 14.6667C16.3537 14.6667 16.6928 14.8071 16.9429 15.0572C17.1929 15.3072 17.3334 15.6464 17.3334 16C17.3334 16.3536 17.1929 16.6928 16.9429 16.9428C16.6928 17.1929 16.3537 17.3333 16 17.3333C15.6464 17.3333 15.3073 17.1929 15.0572 16.9428C14.8072 16.6928 14.6667 16.3536 14.6667 16C14.6667 15.6464 14.8072 15.3072 15.0572 15.0572C15.3073 14.8071 15.6464 14.6667 16 14.6667Z" fill="#7C3AED"/>
<path d="M29.3334 1.33333H25.3334V30.6667H29.3334C29.687 30.6667 30.0261 30.5262 30.2762 30.2761C30.5262 30.0261 30.6667 29.687 30.6667 29.3333V2.66667C30.6667 2.31304 30.5262 1.9739 30.2762 1.72386C30.0261 1.47381 29.687 1.33333 29.3334 1.33333Z" fill="#1DB5BE"/>
</svg>
